<?xml version="1.0" encoding="UTF-8" standalone="no"?>
<!-- Page 1 -->

<svg
   xmlns:dc="http://purl.org/dc/elements/1.1/"
   xmlns:cc="http://creativecommons.org/ns#"
   xmlns:rdf="http://www.w3.org/1999/02/22-rdf-syntax-ns#"
   xmlns:svg="http://www.w3.org/2000/svg"
   xmlns="http://www.w3.org/2000/svg"
   xmlns:xlink="http://www.w3.org/1999/xlink"
   xmlns:sodipodi="http://sodipodi.sourceforge.net/DTD/sodipodi-0.dtd"
   xmlns:inkscape="http://www.inkscape.org/namespaces/inkscape"
   x="0"
   y="0"
   width="12.157795mm"
   height="9.8006887mm"
   viewBox="0 0 43.0788 34.72685"
   version="1.1"
   style="display:block"
   id="svg3444"
   inkscape:version="0.91 r13725"
   sodipodi:docname="ligatures.svg">
  <metadata
     id="metadata3512">
    <rdf:RDF>
      <cc:Work
         rdf:about="">
        <dc:format>image/svg+xml</dc:format>
        <dc:type
           rdf:resource="http://purl.org/dc/dcmitype/StillImage" />
        <dc:title></dc:title>
        <cc:license
           rdf:resource="http://creativecommons.org/publicdomain/zero/1.0/" />
      </cc:Work>
      <cc:License
         rdf:about="http://creativecommons.org/publicdomain/zero/1.0/">
        <cc:permits
           rdf:resource="http://creativecommons.org/ns#Reproduction" />
        <cc:permits
           rdf:resource="http://creativecommons.org/ns#Distribution" />
        <cc:permits
           rdf:resource="http://creativecommons.org/ns#DerivativeWorks" />
      </cc:License>
    </rdf:RDF>
  </metadata>
  <sodipodi:namedview
     pagecolor="#ffffff"
     bordercolor="#666666"
     borderopacity="1"
     objecttolerance="10"
     gridtolerance="10"
     guidetolerance="10"
     inkscape:pageopacity="0"
     inkscape:pageshadow="2"
     inkscape:window-width="1161"
     inkscape:window-height="726"
     id="namedview3510"
     showgrid="false"
     units="mm"
     width="50mm"
     fit-margin-top="0"
     fit-margin-left="0"
     fit-margin-right="0"
     fit-margin-bottom="0"
     inkscape:zoom="2.2392792"
     inkscape:cx="178.07718"
     inkscape:cy="-8.5373631"
     inkscape:window-x="0"
     inkscape:window-y="0"
     inkscape:window-maximized="0"
     inkscape:current-layer="svg3444" />
  <defs
     id="defs3446">
    <clipPath
       id="c0_1">
      <path
         d="m 110,153.1 0,-43.1 689.5,0 0,43.1 z"
         id="path3449"
         inkscape:connector-curvature="0" />
    </clipPath>
    <style
       type="text/css"
       id="style3451"><![CDATA[


.s1_1{
font-size: 17.95px;
font-family: MinionPro-Regular_8;
fill: TRANSPARENT;
}
.s2_1{
font-size: 17.95px;
font-family: MinionPro-Regular_9;
fill: TRANSPARENT;
}
text::-moz-selection {
	color: transparent;
	background: rgba(0, 106, 173, 0.4);
}
text::selection {
	color: transparent;
	background: rgba(0, 106, 173, 0.4);
}

]]></style>
  </defs>
  <g
     id="g3515"
     transform="translate(-0.98127763,-0.83546)">
    <g
       transform="translate(-117.00194,-109.93728)"
       id="g3455"
       clip-path="url(#c0_1)">
      <g
         style="fill:#000000"
         id="g3457">
        <use
           height="100%"
           width="100%"
           y="0"
           x="0"
           id="use3459"
           transform="matrix(11.7,0,0,11.7,117.5,123.5)"
           xlink:href="#f0_3" />
        <use
           height="100%"
           width="100%"
           y="0"
           x="0"
           id="use3461"
           transform="matrix(11.7,0,0,11.7,123,123.5)"
           xlink:href="#f0_4" />
        <use
           height="100%"
           width="100%"
           y="0"
           x="0"
           id="use3463"
           transform="matrix(11.7,0,0,11.7,131.9,123.5)"
           xlink:href="#f1_5" />
      </g>
    </g>
    <g
       transform="translate(-117.00194,-109.93728)"
       id="g3469"
       clip-path="url(#c0_1)">
      <g
         style="fill:#000000"
         id="g3471">
        <use
           height="100%"
           width="100%"
           y="0"
           x="0"
           id="use3473"
           transform="matrix(11.7,0,0,11.7,147.6,123.5)"
           xlink:href="#f1_3" />
        <use
           height="100%"
           width="100%"
           y="0"
           x="0"
           id="use3475"
           transform="matrix(11.7,0,0,11.7,117.5,145)"
           xlink:href="#f0_5" />
      </g>
    </g>
    <g
       transform="translate(-117.00194,-109.93728)"
       id="g3479"
       clip-path="url(#c0_1)">
      <g
         style="fill:#000000"
         id="g3481">
        <use
           height="100%"
           width="100%"
           y="0"
           x="0"
           id="use3483"
           transform="matrix(11.7,0,0,11.7,124,145)"
           xlink:href="#f0_6" />
        <use
           height="100%"
           width="100%"
           y="0"
           x="0"
           id="use3485"
           transform="matrix(11.7,0,0,11.7,133.5,145)"
           xlink:href="#f1_5" />
      </g>
    </g>
    <g
       transform="translate(-117.00194,-109.93728)"
       id="g3491"
       clip-path="url(#c0_1)">
      <g
         style="fill:#000000"
         id="g3493">
        <use
           height="100%"
           width="100%"
           y="0"
           x="0"
           id="use3495"
           transform="matrix(11.7,0,0,11.7,149.3,145)"
           xlink:href="#f1_4" />
      </g>
    </g>
  </g>
  <defs
     id="defs3499">
    <path
       d="m 45.8,0 0,39.7 c 97.8,9.2 108.5,16.8 108.5,117.7 l 0,450.7 -106.9,0 -6.1,15.2 41.2,44.3 71.8,0 0,33.7 c 0,47.3 6.1,91.6 16.8,125.2 10.7,33.6 35.2,108.5 117.7,178.8 53.4,47.3 108.4,74.8 168,82.5 52,-1.5 96.3,-22.9 120.7,-52 13.8,-16.8 15.3,-36.6 7.6,-53.4 -4.5,-12.3 -13.7,-24.5 -29,-36.7 -6.3,-4.9 -12.5,-7.5 -18.8,-7.5 -7.5,0 -15,3.8 -22.4,12.1 -30.6,27.5 -73.4,56.5 -123.8,56.5 -39.7,0 -64.2,-18.3 -81,-45.8 C 290.3,931.9 273.5,858.6 275,728.8 l 0,-61.2 180.3,0 c 9.1,-13.7 1.5,-50.4 -15.3,-59.5 l -165,0 0,-440 C 275,55 285.7,50.4 406.4,38.2 l 0,-38.2 z"
       id="f0_3"
       transform="scale(0.001,-0.001)"
       inkscape:connector-curvature="0" />
    <path
       d="m 48.9,0 0,39.7 c 96.2,9.2 106.9,18.4 106.9,122.2 l 0,314.8 c 0,94.7 -4.5,100.8 -96.2,116.1 l 0,36.6 c 77.9,12.3 149.7,32.1 216.9,59.6 l 0,-527.1 C 276.5,58.1 287.2,48.9 385,39.7 L 385,0 Z m 157.4,818.9 c -39.8,0 -76.4,36.7 -76.4,77.9 0,45.8 36.6,79.5 77.9,79.5 42.8,0 76.4,-33.7 76.4,-79.5 0,-41.2 -33.6,-77.9 -77.9,-77.9 z"
       id="f0_4"
       transform="scale(0.001,-0.001)"
       inkscape:connector-curvature="0" />
    <path
       d="m 476.7,-42.7 -56.6,70.2 354.5,317.8 -727.2,0 0,84 727.2,0 -354.5,316.3 56.6,71.8 469,-429.3 0,-1.6 -469,-429.2 z"
       id="f1_5"
       transform="scale(0.001,-0.001)"
       inkscape:connector-curvature="0" />
    <path
       d="m 47.4,0 0,39.7 c 94.7,10.7 108.4,18.4 108.4,113.1 l 0,455.3 -110,0 -7.6,16.8 42.8,42.7 74.8,0 0,36.7 c 0,47.4 6.1,85.6 16.8,117.6 10.7,38.2 42.8,116.2 125.3,181.9 62.7,50.4 132.9,77.9 189.5,84 93.2,-3.1 145.1,-48.9 161.9,-73.4 13.8,-19.8 13.8,-38.1 7.6,-55 -7.6,-13.7 -19.8,-29 -33.6,-38.1 -8.6,-5.1 -16.1,-7.7 -23,-7.7 -7.9,0 -14.8,3.4 -21.3,10.7 -33.6,39.7 -85.5,88.6 -158.9,88.6 -44.3,0 -74.8,-24.4 -94.7,-53.5 C 296.4,919.7 275,841.8 275,719.6 l 0,-52 120.7,0 c 122.2,0 207.8,4.6 287.2,19.9 l 0,-534.7 c 0,-96.3 9.2,-103.9 107,-113.1 L 789.9,0 466,0 l 0,39.7 c 85.5,7.7 96.2,16.8 96.2,113.1 l 0,374.3 c 0,68.7 -4.6,81 -77.9,81 l -209.3,0 0,-455.3 C 275,58.1 285.7,48.9 381.9,39.7 l 0,-39.7 z"
       id="f1_3"
       transform="scale(0.001,-0.001)"
       inkscape:connector-curvature="0" />
    <path
       d="M 262.8,-18.2 C 184.9,-18.2 114.6,10.7 87.1,33.6 76.4,55 62.6,158.9 62.6,213.9 l 39.8,7.6 C 129.9,120.7 198.6,32.1 290.3,32.1 c 56.5,0 108.5,42.8 108.5,106.9 0,67.3 -44.4,103.9 -120.7,139.1 -91.7,42.7 -191,93.2 -191,210.8 0,106.9 91.7,197.1 232.2,197.1 62.6,0 103.9,-13.8 136,-26 12.2,-35.1 29,-125.3 33.6,-163.5 l -39.7,-9.1 c -29.1,90.1 -82.5,151.2 -157.4,151.2 -58,0 -99.3,-45.8 -99.3,-105.4 0,-68.8 61.1,-103.9 129.9,-132.9 C 436.9,352.9 514.9,297.9 514.9,192.5 514.9,53.5 385,-18.2 262.8,-18.2 Z"
       id="f0_5"
       transform="scale(0.001,-0.001)"
       inkscape:connector-curvature="0" />
    <path
       d="m 287.2,-18.2 c -96.2,0 -149.7,61 -149.7,181.7 l 0,444.6 -105.4,0 -6.1,15.2 41.2,44.3 70.3,0 0,111.6 99.3,100.8 21.4,-3.1 0,-209.3 172.6,0 c 13.8,-15.2 9.2,-48.8 -9.1,-59.5 l -163.5,0 0,-392.7 c 0,-123.7 50.4,-146.6 88.6,-146.6 38.2,0 73.3,15.2 94.7,25.9 L 455.3,55 351.4,1.5 c -26,-13.6 -50.4,-19.7 -64.2,-19.7 z"
       id="f0_6"
       transform="scale(0.001,-0.001)"
       inkscape:connector-curvature="0" />
    <path
       d="m 262.8,-18.2 c -81,0 -154.3,30.4 -180.3,54.9 -9.2,25.9 -21.4,125.2 -22.9,181.8 l 39.7,6.1 c 29,-102.4 100.8,-192.5 192.5,-192.5 56.5,0 110,35.1 110,106.9 0,67.3 -45.8,107 -125.3,143.6 -90.1,39.8 -184.8,94.8 -184.8,204.8 0,106.9 93.2,198.6 235.2,198.6 15.3,0 27.5,0 36.7,-1.6 -15.3,29.1 -24.4,59.6 -24.4,97.8 0,134.5 103.9,229.2 238.3,229.2 129.9,0 229.2,-58.1 229.2,-253.6 l 0,-90.2 172.6,0 c 12.2,-12.2 7.6,-48.8 -10.7,-59.5 l -161.9,0 0,-391.2 c 0,-123.7 50.4,-148.1 90.1,-148.1 39.7,0 73.3,15.2 94.7,25.9 l 13.8,-42.8 -107,-53.3 c -25.9,-12.3 -47.3,-16.8 -61.1,-16.8 -96.2,0 -149.7,61 -149.7,181.7 l 0,444.6 -97.8,0 -7.6,16.8 42.8,42.7 62.6,0 0,85.6 c 0,117.9 -35.9,189.5 -137.3,189.5 -1.1,0 -2.2,0 -3.3,-0.1 -84,0 -143.6,-62.6 -143.6,-174.1 0,-39.7 4.6,-64.2 19.9,-96.3 9.2,-3 16.8,-7.6 24.4,-12.2 12.3,-32.1 24.5,-93.2 30.6,-129.9 l -42.8,-12.2 c -27.5,67.2 -68.7,119.2 -136,119.2 -61.1,0 -100.8,-45.8 -100.8,-102.4 0,-65.7 55,-102.3 125.3,-132.9 114.6,-48.9 194,-103.9 194,-209.3 0,-140.6 -131.4,-210.7 -255.1,-210.7 z"
       id="f1_4"
       transform="scale(0.001,-0.001)"
       inkscape:connector-curvature="0" />
  </defs>
  <!-- Any embedded fonts defined here -->
  <style
     type="text/css"
     id="style3508"><![CDATA[

@font-face {
	font-family: MinionPro-Regular_9;
	src: url("fonts/MinionPro-Regular_9.woff") format("woff");
}

@font-face {
	font-family: MinionPro-Regular_8;
	src: url("fonts/MinionPro-Regular_8.woff") format("woff");
}

]]></style>
</svg>
